<?xml version="1.0" encoding="utf-8"?>
<!-- Generator: Adobe Illustrator 16.0.0, SVG Export Plug-In . SVG Version: 6.00 Build 0)  -->
<!DOCTYPE svg PUBLIC "-//W3C//DTD SVG 1.1//EN" "http://www.w3.org/Graphics/SVG/1.1/DTD/svg11.dtd">
<svg version="1.1" id="Livello_1" xmlns="http://www.w3.org/2000/svg" xmlns:xlink="http://www.w3.org/1999/xlink" x="0px" y="0px"
	 width="439.452px" height="710.186px" viewBox="360.548 89.814 439.452 710.186"
	 enable-background="new 360.548 89.814 439.452 710.186" xml:space="preserve">
<circle image-rendering="auto" color-rendering="auto" fill="#5A6772" cx="469.024" cy="400.831" r="108.476"/>
<defs>
	<filter id="Adobe_OpacityMaskFilter" filterUnits="userSpaceOnUse" x="361.454" y="353.704" width="153.6" height="155.465">
		<feColorMatrix  type="matrix" values="1 0 0 0 0  0 1 0 0 0  0 0 1 0 0  0 0 0 1 0"/>
	</filter>
</defs>
<mask maskUnits="userSpaceOnUse" x="361.454" y="353.704" width="153.6" height="155.465" id="f_1_">
	
		<circle image-rendering="auto" color-rendering="auto" shape-rendering="auto" fill="#FFFFFF" filter="url(#Adobe_OpacityMaskFilter)" cx="469.024" cy="400.831" r="108.476"/>
</mask>
<linearGradient id="SVGID_1_" gradientUnits="userSpaceOnUse" x1="322.9546" y1="239.979" x2="256.6324" y2="167.9185" gradientTransform="matrix(1 0 0 -1 146.0303 643.6699)">
	<stop  offset="0" style="stop-color:#000000"/>
	<stop  offset="1" style="stop-color:#000000;stop-opacity:0"/>
</linearGradient>
<path image-rendering="auto" color-rendering="auto" opacity="0.42" mask="url(#f_1_)" fill="url(#SVGID_1_)" enable-background="new    " d="
	M426.021,353.706l-64.567,64.568c6.779,51.464,33.433,87.151,100.315,90.895l53.284-53.284V353.704L426.021,353.706z"/>
<defs>
	<filter id="Adobe_OpacityMaskFilter_1_" filterUnits="userSpaceOnUse" x="426.021" y="353.706" width="89.033" height="102.182">
		<feColorMatrix  type="matrix" values="1 0 0 0 0  0 1 0 0 0  0 0 1 0 0  0 0 0 1 0"/>
	</filter>
</defs>
<mask maskUnits="userSpaceOnUse" x="426.021" y="353.706" width="89.033" height="102.182" id="e_1_">
	
		<circle image-rendering="auto" color-rendering="auto" shape-rendering="auto" fill="#FFFFFF" filter="url(#Adobe_OpacityMaskFilter_1_)" cx="469.024" cy="400.831" r="108.476"/>
</mask>
<path image-rendering="auto" color-rendering="auto" mask="url(#e_1_)" fill="#FFFFFF" d="M426.021,353.706v102.182h57.071v-5.708
	h-52.095v-90.762h79.081v90.762h-7.662v5.708h12.638V353.706H426.021L426.021,353.706z M435.883,364.117v6.026h57.802v-6.026
	H435.883z M435.883,372.253v6.026h61.775v-6.026H435.883z M435.883,380.389v6.025h43.953v-6.025H435.883z M435.883,388.524v6.025
	h56.446v-6.025H435.883z M435.883,396.659v6.026h59.735v-6.026H435.883z M435.883,404.796v6.026h67.096v-6.026H435.883
	L435.883,404.796z M435.883,412.932v6.026h64.771v-6.026H435.883L435.883,412.932z"/>
<g>
	
		<circle image-rendering="auto" color-rendering="auto" shape-rendering="auto" fill="#0066CC" cx="641.943" cy="640.944" r="159.056"/>
	<defs>
		<filter id="Adobe_OpacityMaskFilter_2_" filterUnits="userSpaceOnUse" x="495.666" y="574.979" width="209.585" height="223.276">
			<feColorMatrix  type="matrix" values="1 0 0 0 0  0 1 0 0 0  0 0 1 0 0  0 0 0 1 0"/>
		</filter>
	</defs>
	<mask maskUnits="userSpaceOnUse" x="495.666" y="574.979" width="209.585" height="223.276" id="f_2_">
		
			<circle image-rendering="auto" color-rendering="auto" shape-rendering="auto" fill="#FFFFFF" filter="url(#Adobe_OpacityMaskFilter_2_)" cx="641.943" cy="640.944" r="159.056"/>
	</mask>
	
		<linearGradient id="SVGID_2_" gradientUnits="userSpaceOnUse" x1="504.2852" y1="-12.8032" x2="400.3029" y2="-116.7855" gradientTransform="matrix(1 0 0 -1 146.0303 643.6699)">
		<stop  offset="0" style="stop-color:#000000;stop-opacity:0.42"/>
		<stop  offset="1" style="stop-color:#000000;stop-opacity:0"/>
	</linearGradient>
	<path image-rendering="auto" color-rendering="auto" shape-rendering="auto" mask="url(#f_2_)" fill="url(#SVGID_2_)" d="
		M641.939,574.979c-10.604,0-20.177,4.426-26.97,11.529L495.666,705.812c27.663,57.218,69.371,82.825,118.19,92.444l91.349-91.351
		c0.018-0.333,0.034-0.665,0.046-0.999c-0.013-23.207-11.273-44.771-29.795-57.053h-0.012c-8.347,7.666-19.036,12.222-30.28,12.97
		c0.003-0.002,0.005-0.004,0.007-0.006l22.554-22.554c7.104-6.793,11.528-16.364,11.528-26.971
		C679.253,591.687,662.547,574.98,641.939,574.979L641.939,574.979z"/>
	<defs>
		<filter id="Adobe_OpacityMaskFilter_3_" filterUnits="userSpaceOnUse" x="578.639" y="574.979" width="126.611" height="131.929">
			<feColorMatrix  type="matrix" values="1 0 0 0 0  0 1 0 0 0  0 0 1 0 0  0 0 0 1 0"/>
		</filter>
	</defs>
	<mask maskUnits="userSpaceOnUse" x="578.639" y="574.979" width="126.611" height="131.929" id="e_2_">
		
			<circle image-rendering="auto" color-rendering="auto" shape-rendering="auto" fill="#FFFFFF" filter="url(#Adobe_OpacityMaskFilter_3_)" cx="641.943" cy="640.944" r="159.056"/>
	</mask>
	<path image-rendering="auto" color-rendering="auto" shape-rendering="auto" mask="url(#e_2_)" fill="#FFFFFF" d="M641.939,574.979
		c-20.606,0-37.313,16.705-37.313,37.313s16.706,37.313,37.313,37.313c20.607,0,37.313-16.706,37.313-37.313
		C679.252,591.685,662.547,574.979,641.939,574.979L641.939,574.979z M675.444,648.853c-9.14,8.396-21.094,13.064-33.505,13.084
		c-12.393-0.023-24.328-4.681-33.461-13.058c-18.53,12.267-29.809,33.82-29.84,57.03c0.013,0.333,0.027,0.665,0.044,0.999h126.522
		c0.018-0.334,0.032-0.666,0.045-0.999c-0.014-23.208-11.275-44.771-29.797-57.054L675.444,648.853z"/>
</g>
<g>
	<circle fill="#8EBEED" cx="669.021" cy="221.795" r="130.98"/>
	<g>
		<defs>
			<circle id="SVGID_3_" cx="669.021" cy="221.795" r="130.98"/>
		</defs>
		<clipPath id="SVGID_4_">
			<use xlink:href="#SVGID_3_"  overflow="visible"/>
		</clipPath>
		<g clip-path="url(#SVGID_4_)">
			
				<linearGradient id="SVGID_5_" gradientUnits="userSpaceOnUse" x1="630.2207" y1="254.6777" x2="361.8749" y2="-13.6681" gradientTransform="matrix(0.3543 0 0 -0.3543 463.5308 294.2314)">
				<stop  offset="0" style="stop-color:#000000"/>
				<stop  offset="1" style="stop-color:#000000;stop-opacity:0"/>
			</linearGradient>
			<path opacity="0.42" fill="url(#SVGID_5_)" enable-background="new    " d="M642.568,351.537
				c46.835-46.825,91.66-91.63,91.961-91.928c0.652-0.652,1.019-1.534,1.017-2.455v-70.72c0-1.917-1.554-3.471-3.471-3.471H605.968
				c-1.002-0.001-1.956,0.432-2.613,1.187l-64.085,64.082c11.759,51.453,43.655,87.792,103.304,103.305H642.568z"/>
			<path fill="#FFFFFF" d="M732.073,182.965H605.966c-1.917,0-3.471,1.554-3.471,3.471l0,0v70.72c0,1.917,1.554,3.471,3.471,3.471
				l0,0h126.107c1.917,0,3.471-1.554,3.471-3.471v-70.72C735.544,184.52,733.99,182.965,732.073,182.965z M704.596,195.186h11.106
				v11.107h-11.106V195.186z M710.149,220.523h-11.107v-11.107h11.106L710.149,220.523z M715.702,223.647v11.108h-11.106v-11.108
				H715.702z M627.891,220.523v-11.107h11.106v11.107H627.891z M630.32,223.647v11.108h-11.107v-11.108H630.32z M633.444,223.647
				h11.106v11.108h-11.106V223.647z M642.122,220.523v-11.107h11.105v11.107H642.122z M647.675,223.647h11.106v11.108h-11.107
				L647.675,223.647z M656.353,220.523v-11.107h11.105v11.107H656.353z M661.905,223.647h11.105v11.108h-11.106L661.905,223.647z
				 M670.583,220.523v-11.107h11.105v11.107H670.583z M676.135,223.647h11.107v11.108h-11.107V223.647z M684.813,220.523v-11.107
				h11.105v11.107H684.813z M690.367,223.647h11.106v11.108h-11.108L690.367,223.647z M690.367,195.186h11.106v11.107h-11.108
				L690.367,195.186z M676.135,195.186h11.107v11.107h-11.107V195.186z M661.905,195.186h11.105v11.107h-11.106L661.905,195.186z
				 M647.675,195.186h11.106v11.107h-11.107L647.675,195.186z M633.444,195.186h11.106v11.107h-11.107L633.444,195.186z
				 M619.214,195.186h11.106v11.107h-11.107L619.214,195.186z M613.66,209.417h11.106v11.107h-11.107L613.66,209.417z
				 M624.767,248.985h-11.107v-11.106h11.106L624.767,248.985z M709.108,248.985h-81.221v-11.106h81.217L709.108,248.985z
				 M723.339,248.985H712.23v-11.106h11.106L723.339,248.985z M724.38,220.524h-11.107v-11.107h11.106L724.38,220.524z"/>
		</g>
	</g>
</g>
<rect x="435.883" y="420.932" fill="#FFFFFF" width="64.771" height="6.026"/>
<rect x="435.883" y="428.932" fill="#FFFFFF" width="64.771" height="6.026"/>
<rect x="435.883" y="436.932" fill="#FFFFFF" width="64.771" height="6.026"/>
</svg>
