<?xml version="1.0" encoding="utf-8"?>
<!-- Generator: Adobe Illustrator 16.0.0, SVG Export Plug-In . SVG Version: 6.00 Build 0)  -->
<!DOCTYPE svg PUBLIC "-//W3C//DTD SVG 1.1//EN" "http://www.w3.org/Graphics/SVG/1.1/DTD/svg11.dtd">
<svg version="1.1" id="Livello_1" xmlns="http://www.w3.org/2000/svg" xmlns:xlink="http://www.w3.org/1999/xlink" x="0px" y="0px"
	 width="311.87px" height="297.25px" viewBox="0 0 311.87 297.25" enable-background="new 0 0 311.87 297.25" xml:space="preserve">
<g id="XMLID_1_">
	<g>
		<path fill="#FFFFFF" d="M311.87,146.86v150.39h-29.75V146.5c0-39.62-31.439-69.61-70.149-69.61h-66.72
			c-38.62,0-70.53,29.78-70.53,69.42l0.27,73.07C56.45,200.76,45,177.16,45,148.55C45,91.9,89.84,45.99,145.19,45.99l66.43,0.12
			C266.35,46.11,310.9,91.03,311.87,146.86z"/>
		<path fill="#FFFFFF" d="M266.58,266.28v30.97H145.26C65.05,297.25,0,230.74,0,148.57C0,66.53,64.97,0,145.18,0h54v30.82h-52.8
			c-63.51,0-116.11,52.78-116.11,117.75c0,65.05,51.54,117.71,114.99,117.71H266.58z"/>
		<path fill="#FFFFFF" d="M199.18,92.93v30.58h-53.61c-13.68,0-24.74,11.36-24.74,25.42v95.35c-14.27-2.34-21.64-6.561-30.8-12.43
			l-0.31-82.081c0-31.42,24.71-56.84,55.46-56.84H199.18z"/>
	</g>
	<g>
	</g>
</g>
</svg>
