<?xml version="1.0" encoding="utf-8"?>
<!-- Generator: Adobe Illustrator 16.0.0, SVG Export Plug-In . SVG Version: 6.00 Build 0)  -->
<!DOCTYPE svg PUBLIC "-//W3C//DTD SVG 1.1//EN" "http://www.w3.org/Graphics/SVG/1.1/DTD/svg11.dtd">
<svg version="1.1" id="Livello_1" xmlns="http://www.w3.org/2000/svg" xmlns:xlink="http://www.w3.org/1999/xlink" x="0px" y="0px"
	 width="102.872px" height="27.173px" viewBox="0 0 102.872 27.173" enable-background="new 0 0 102.872 27.173"
	 xml:space="preserve">
<g>
	<path fill="#FFFFFF" d="M16.324,19.482c0,1.244-0.229,2.352-0.687,3.322s-1.094,1.794-1.907,2.471s-1.771,1.186-2.871,1.528
		s-2.287,0.513-3.558,0.513c-0.889,0-1.712-0.075-2.471-0.226s-1.436-0.335-2.03-0.554s-1.094-0.444-1.497-0.677
		s-0.684-0.431-0.841-0.595s-0.273-0.373-0.349-0.625S0,24.049,0,23.625c0-0.301,0.014-0.55,0.041-0.749s0.068-0.359,0.123-0.482
		s0.123-0.208,0.205-0.256s0.178-0.072,0.287-0.072c0.191,0,0.461,0.116,0.81,0.349S2.263,22.9,2.81,23.174s1.207,0.53,1.979,0.769
		s1.665,0.359,2.676,0.359c0.766,0,1.466-0.103,2.102-0.308s1.183-0.496,1.641-0.872s0.81-0.837,1.056-1.384
		s0.369-1.169,0.369-1.866c0-0.752-0.171-1.395-0.513-1.928s-0.793-1.001-1.354-1.405s-1.2-0.772-1.917-1.107
		s-1.453-0.677-2.205-1.025s-1.483-0.735-2.194-1.159s-1.347-0.923-1.907-1.497s-1.015-1.248-1.364-2.02S0.656,8.032,0.656,6.952
		c0-1.107,0.202-2.095,0.605-2.963s0.964-1.596,1.682-2.184s1.572-1.036,2.563-1.343S7.567,0,8.716,0
		c0.588,0,1.179,0.051,1.774,0.154s1.155,0.239,1.682,0.41s0.995,0.362,1.405,0.574s0.68,0.383,0.81,0.513s0.215,0.232,0.256,0.308
		s0.075,0.171,0.103,0.287s0.048,0.256,0.062,0.42s0.021,0.376,0.021,0.636c0,0.246-0.01,0.465-0.031,0.656S14.745,4.31,14.704,4.44
		s-0.099,0.226-0.174,0.287s-0.161,0.092-0.256,0.092c-0.15,0-0.386-0.096-0.708-0.287s-0.714-0.407-1.179-0.646
		s-1.015-0.458-1.651-0.656s-1.35-0.297-2.143-0.297c-0.738,0-1.381,0.099-1.928,0.297S5.667,3.691,5.312,4.02
		s-0.622,0.718-0.8,1.169s-0.267,0.93-0.267,1.436c0,0.738,0.171,1.374,0.513,1.907s0.796,1.005,1.364,1.415
		s1.213,0.786,1.938,1.128s1.463,0.687,2.215,1.036s1.49,0.731,2.215,1.148s1.371,0.909,1.938,1.477s1.025,1.237,1.374,2.01
		S16.324,18.43,16.324,19.482z"/>
	<path fill="#FFFFFF" d="M26.577,26.394c0,0.109-0.027,0.205-0.082,0.287s-0.15,0.147-0.287,0.195s-0.318,0.089-0.543,0.123
		s-0.509,0.051-0.851,0.051c-0.328,0-0.608-0.017-0.841-0.051s-0.417-0.075-0.554-0.123s-0.232-0.113-0.287-0.195
		s-0.082-0.178-0.082-0.287V0.923c0-0.109,0.031-0.205,0.092-0.287s0.164-0.147,0.308-0.195s0.328-0.089,0.554-0.123
		s0.496-0.051,0.81-0.051c0.342,0,0.625,0.017,0.851,0.051s0.407,0.075,0.543,0.123s0.232,0.113,0.287,0.195
		s0.082,0.178,0.082,0.287V26.394z"/>
	<path fill="#FFFFFF" d="M55.245,3.999c0,0.26-0.014,0.489-0.041,0.687s-0.068,0.362-0.123,0.492S54.958,5.4,54.875,5.455
		s-0.171,0.082-0.267,0.082c-0.164,0-0.438-0.13-0.82-0.39s-0.896-0.547-1.538-0.861s-1.412-0.602-2.307-0.861
		s-1.958-0.39-3.189-0.39c-1.463,0-2.775,0.267-3.938,0.8S40.67,5.106,39.864,6.05s-1.425,2.064-1.856,3.363
		s-0.646,2.707-0.646,4.225c0,1.695,0.236,3.199,0.708,4.512s1.125,2.42,1.958,3.322s1.829,1.586,2.984,2.051
		s2.423,0.697,3.804,0.697c0.82,0,1.651-0.099,2.492-0.297s1.624-0.496,2.348-0.892v-7.731h-6.152c-0.232,0-0.407-0.116-0.523-0.349
		s-0.174-0.595-0.174-1.087c0-0.26,0.014-0.482,0.041-0.667s0.072-0.335,0.133-0.451s0.133-0.202,0.215-0.256
		s0.185-0.082,0.308-0.082h8.429c0.15,0,0.301,0.027,0.451,0.082s0.287,0.137,0.41,0.246s0.219,0.26,0.287,0.451
		s0.103,0.41,0.103,0.656v10.11c0,0.355-0.062,0.663-0.185,0.923s-0.383,0.489-0.779,0.687s-0.909,0.414-1.538,0.646
		s-1.278,0.431-1.948,0.595s-1.347,0.287-2.03,0.369s-1.36,0.123-2.03,0.123c-2.051,0-3.883-0.318-5.496-0.954
		s-2.977-1.542-4.091-2.717s-1.965-2.584-2.553-4.225s-0.882-3.473-0.882-5.496c0-2.105,0.318-4.013,0.954-5.722
		s1.531-3.165,2.687-4.368s2.543-2.136,4.163-2.799s3.415-0.995,5.383-0.995c1.012,0,1.962,0.089,2.851,0.267
		s1.678,0.386,2.369,0.625s1.271,0.499,1.743,0.779s0.796,0.509,0.974,0.687s0.301,0.383,0.369,0.615S55.245,3.562,55.245,3.999z"/>
	<path fill="#FFFFFF" d="M77.248,25.389c0,0.273-0.014,0.502-0.041,0.687s-0.072,0.342-0.133,0.472s-0.137,0.226-0.226,0.287
		s-0.195,0.092-0.318,0.092H64.8c-0.314,0-0.612-0.106-0.892-0.318s-0.42-0.584-0.42-1.118V0.923c0-0.109,0.027-0.205,0.082-0.287
		s0.15-0.147,0.287-0.195s0.321-0.089,0.554-0.123s0.513-0.051,0.841-0.051c0.342,0,0.625,0.017,0.851,0.051
		s0.407,0.075,0.543,0.123s0.232,0.113,0.287,0.195s0.082,0.178,0.082,0.287v22.948h9.516c0.123,0,0.229,0.031,0.318,0.092
		s0.164,0.15,0.226,0.267s0.106,0.27,0.133,0.461S77.248,25.115,77.248,25.389z"/>
	<path fill="#FFFFFF" d="M102.697,25.676c0.109,0.301,0.167,0.543,0.174,0.728s-0.044,0.325-0.154,0.42s-0.291,0.157-0.543,0.185
		s-0.591,0.041-1.015,0.041s-0.762-0.01-1.015-0.031s-0.444-0.055-0.574-0.103s-0.226-0.113-0.287-0.195s-0.12-0.185-0.174-0.308
		l-2.276-6.46H85.798l-2.174,6.378c-0.041,0.123-0.096,0.229-0.164,0.318s-0.167,0.164-0.297,0.226s-0.314,0.106-0.554,0.133
		s-0.55,0.041-0.933,0.041c-0.396,0-0.721-0.017-0.974-0.051s-0.431-0.099-0.533-0.195s-0.15-0.236-0.144-0.42
		s0.065-0.427,0.174-0.728l8.9-24.65c0.055-0.15,0.126-0.273,0.215-0.369s0.219-0.171,0.39-0.226s0.39-0.092,0.656-0.113
		s0.605-0.031,1.015-0.031c0.438,0,0.8,0.01,1.087,0.031s0.52,0.058,0.697,0.113s0.314,0.133,0.41,0.236s0.171,0.229,0.226,0.379
		L102.697,25.676z M91.274,3.917h-0.021L86.68,17.145h9.229L91.274,3.917z"/>
</g>
</svg>
